<?xml version="1.0" encoding="UTF-8"?><svg id="Layer_1" xmlns="http://www.w3.org/2000/svg" xmlns:xlink="http://www.w3.org/1999/xlink" viewBox="0 0 65.31 74.45"><defs><linearGradient id="linear-gradient" x1="-535.75" y1="710.49" x2="-535.75" y2="687.6" gradientTransform="translate(564 710.49) scale(1 -1)" gradientUnits="userSpaceOnUse"><stop offset="0" stop-color="#62e7ae"/><stop offset="1" stop-color="#2dcf9e"/></linearGradient><linearGradient id="linear-gradient-2" x1="-520.81" y1="706.57" x2="-520.81" y2="683.68" xlink:href="#linear-gradient"/><linearGradient id="linear-gradient-3" x1="-511.96" y1="699.61" x2="-511.96" y2="676.72" xlink:href="#linear-gradient"/><linearGradient id="linear-gradient-4" x1="-510.13" y1="688.93" x2="-510.13" y2="666.04" xlink:href="#linear-gradient"/><linearGradient id="linear-gradient-5" x1="-516.76" y1="680.14" x2="-516.76" y2="657.24" xlink:href="#linear-gradient"/><linearGradient id="linear-gradient-6" x1="-548.8" y1="683.11" x2="-548.8" y2="660.22" xlink:href="#linear-gradient"/><linearGradient id="linear-gradient-7" x1="-552.55" y1="691.9" x2="-552.55" y2="669.01" xlink:href="#linear-gradient"/><linearGradient id="linear-gradient-8" x1="-547.82" y1="701.57" x2="-547.82" y2="678.68" xlink:href="#linear-gradient"/><linearGradient id="linear-gradient-9" x1="-533.02" y1="688.16" x2="-533.02" y2="665.27" xlink:href="#linear-gradient"/><linearGradient id="linear-gradient-10" x1="-527.54" y1="693.37" x2="-527.54" y2="670.48" xlink:href="#linear-gradient"/></defs><path d="M38.31,74.45h-13.14c.71-2.78,1.34-6.03,1.71-9.66.48-4.84.38-19.44.06-22.99h9.74c-.28,3.6-.34,18.13.08,22.84.33,3.64.89,6.92,1.55,9.81Z" style="fill:#66356e; stroke-width:0px;"/><path d="M28.25,22.88c6.32,0,11.45-5.12,11.45-11.45S34.56,0,28.25,0s-11.45,5.12-11.45,11.45,5.12,11.45,11.45,11.45h0Z" style="fill:url(#linear-gradient); stroke-width:0px;"/><path d="M43.19,26.81c6.32,0,11.45-5.12,11.45-11.45s-5.12-11.45-11.45-11.45-11.45,5.12-11.45,11.45,5.12,11.45,11.45,11.45Z" style="fill:url(#linear-gradient-2); stroke-width:0px;"/><path d="M52.04,33.77c6.32,0,11.45-5.12,11.45-11.45s-5.12-11.45-11.45-11.45-11.45,5.12-11.45,11.45,5.12,11.45,11.45,11.45Z" style="fill:url(#linear-gradient-3); stroke-width:0px;"/><path d="M53.87,44.45c6.32,0,11.45-5.12,11.45-11.45s-5.12-11.45-11.45-11.45-11.45,5.12-11.45,11.45,5.12,11.45,11.45,11.45Z" style="fill:url(#linear-gradient-4); stroke-width:0px;"/><path d="M47.24,53.24c6.32,0,11.45-5.12,11.45-11.45s-5.12-11.45-11.45-11.45-11.45,5.12-11.45,11.45,5.12,11.45,11.45,11.45Z" style="fill:url(#linear-gradient-5); stroke-width:0px;"/><path d="M15.19,50.27c6.32,0,11.45-5.12,11.45-11.45s-5.12-11.45-11.45-11.45-11.44,5.13-11.44,11.45,5.12,11.45,11.45,11.45h0Z" style="fill:url(#linear-gradient-6); stroke-width:0px;"/><path d="M11.45,41.48c6.32,0,11.45-5.12,11.45-11.45s-5.12-11.45-11.45-11.45S0,23.72,0,30.03s5.12,11.45,11.45,11.45Z" style="fill:url(#linear-gradient-7); stroke-width:0px;"/><path d="M16.17,31.81c6.32,0,11.45-5.12,11.45-11.45s-5.12-11.45-11.45-11.45-11.44,5.13-11.44,11.45,5.12,11.45,11.45,11.45h0Z" style="fill:url(#linear-gradient-8); stroke-width:0px;"/><path d="M30.98,45.22c6.32,0,11.45-5.12,11.45-11.45s-5.12-11.45-11.45-11.45-11.45,5.12-11.45,11.45,5.12,11.45,11.45,11.45Z" style="fill:url(#linear-gradient-9); stroke-width:0px;"/><path d="M36.46,40.01c6.32,0,11.45-5.12,11.45-11.45s-5.12-11.45-11.45-11.45-11.45,5.12-11.45,11.45,5.12,11.45,11.45,11.45Z" style="fill:url(#linear-gradient-10); stroke-width:0px;"/><path d="M48.37,30.31c-1.39,0-2.52,1.13-2.52,2.53,0,.67.27,1.29.7,1.75l-2.94,6.63-8.58,2.15h-.06s.03-.02.03-.02c1.81-1.69,3.62-3.38,5.42-5.08l.25-.62v-10.05c.97-.36,1.66-1.29,1.66-2.38,0-1.4-1.13-2.53-2.52-2.53s-2.52,1.13-2.52,2.53c0,1.1.69,2.02,1.65,2.38v9.69c-.63.6-1.26,1.19-1.9,1.79-1.34,1.27-2.68,2.53-4.03,3.8v-20.01l-.25-.61-1.55-1.56c.15-.33.24-.69.24-1.07,0-1.4-1.13-2.53-2.53-2.53s-2.52,1.13-2.52,2.53,1.13,2.53,2.52,2.53c.38,0,.74-.09,1.06-.23l1.3,1.3v19.64l-6.09-6.18v-6.75c.97-.36,1.66-1.28,1.66-2.37,0-1.4-1.13-2.54-2.53-2.54s-2.52,1.14-2.52,2.54c0,1.09.7,2.02,1.66,2.37v5.38h-6.64v-6.31c.97-.35,1.66-1.28,1.66-2.37,0-1.4-1.13-2.53-2.53-2.53s-2.52,1.13-2.52,2.53c0,1.1.7,2.02,1.66,2.37v7.18l.86.87h7.51l.25.61,7.57,7.66c.57.11,1.15.21,1.72.32l11.42-2.85.58-.49,3.08-6.96c.09.02.18.02.27.02,1.4,0,2.53-1.13,2.53-2.53s-1.13-2.53-2.53-2.53ZM38.65,25.35c0-.61.49-1.11,1.1-1.11s1.1.49,1.1,1.11-.49,1.1-1.1,1.1-1.1-.5-1.1-1.1ZM28.93,20.8c-.61,0-1.1-.49-1.1-1.1s.49-1.1,1.1-1.1,1.1.49,1.1,1.1-.49,1.1-1.1,1.1ZM15.87,27.69c-.61,0-1.1-.49-1.1-1.1s.49-1.1,1.1-1.1,1.1.49,1.1,1.1-.49,1.1-1.1,1.1ZM24.26,28.66c-.61,0-1.1-.49-1.1-1.1s.49-1.1,1.1-1.1,1.1.49,1.1,1.1-.49,1.1-1.1,1.1ZM48.43,34.05c-.61,0-1.1-.5-1.1-1.11s.49-1.1,1.1-1.1,1.1.5,1.1,1.1-.49,1.11-1.1,1.11Z" style="fill:#fff; stroke-width:0px;"/><rect x="31.12" y="44.84" width="1.9" height="29.6" style="fill:#fff; stroke-width:0px;"/></svg>